<svg width="14" height="13" viewBox="0 0 14 13" fill="none" xmlns="http://www.w3.org/2000/svg">
<path d="M11.9966 0.251862C11.767 0.124247 11.5145 0.0431153 11.2535 0.0130994C10.9925 -0.0169166 10.7282 0.00477163 10.4756 0.0769255C10.223 0.149079 9.98714 0.270285 9.78141 0.43362C9.57567 0.596955 9.40413 0.79922 9.27658 1.02886L5.56358 7.71086L3.43858 5.58586C3.25408 5.39484 3.03339 5.24248 2.78939 5.13766C2.54538 5.03284 2.28294 4.97767 2.01738 4.97536C1.75182 4.97305 1.48846 5.02366 1.24267 5.12422C0.996876 5.22478 0.773572 5.37329 0.585787 5.56107C0.398001 5.74886 0.249495 5.97216 0.148933 6.21795C0.0483713 6.46375 -0.00223212 6.72711 7.55134e-05 6.99266C0.00238315 7.25822 0.0575557 7.52066 0.162374 7.76467C0.267192 8.00868 0.419556 8.22937 0.610576 8.41386L4.61058 12.4139C4.98858 12.7929 5.49858 13.0009 6.02458 13.0009L6.30158 12.9809C6.60813 12.938 6.90054 12.8245 7.1558 12.6494C7.41105 12.4744 7.62219 12.2424 7.77258 11.9719L12.7726 2.97186C12.9002 2.74231 12.9814 2.48987 13.0115 2.22894C13.0416 1.96801 13.02 1.70372 12.9479 1.45114C12.8759 1.19856 12.7548 0.96265 12.5915 0.756877C12.4283 0.551104 12.2261 0.3795 11.9966 0.251862Z" fill="#40005C"/>
</svg>
