<svg width="84" height="84" viewBox="0 0 84 84" fill="none" xmlns="http://www.w3.org/2000/svg">
<path fill-rule="evenodd" clip-rule="evenodd" d="M41.6667 0C18.6542 0 0 18.6542 0 41.6667C0 49.5417 2.1875 56.9167 5.99167 63.2L2.275 75.8333C2.0616 76.5587 2.04756 77.3281 2.23435 78.0608C2.42114 78.7934 2.80187 79.4622 3.3365 79.9968C3.87113 80.5315 4.53992 80.9122 5.27257 81.099C6.00522 81.2858 6.77466 81.2717 7.5 81.0583L20.1333 77.3417C26.6281 81.2706 34.076 83.343 41.6667 83.3333C64.6792 83.3333 83.3333 64.6792 83.3333 41.6667C83.3333 18.6542 64.6792 0 41.6667 0ZM32.2417 51.0958C40.6708 59.5208 48.7167 60.6333 51.5583 60.7375C55.8792 60.8958 60.0875 57.5958 61.725 53.7667C61.93 53.2899 62.0041 52.7672 61.9396 52.2523C61.8752 51.7374 61.6745 51.249 61.3583 50.8375C59.075 47.9208 55.9875 45.825 52.9708 43.7417C52.3413 43.3051 51.567 43.1298 50.8109 43.2526C50.0547 43.3754 49.3757 43.7867 48.9167 44.4L46.4167 48.2125C46.2846 48.4167 46.0798 48.563 45.8438 48.6218C45.6078 48.6806 45.3583 48.6475 45.1458 48.5292C43.45 47.5583 40.9792 45.9083 39.2042 44.1333C37.4292 42.3583 35.8792 40 35.0083 38.4125C34.903 38.2102 34.8732 37.977 34.9244 37.7548C34.9756 37.5325 35.1043 37.3358 35.2875 37.2L39.1375 34.3417C39.6885 33.865 40.0443 33.2017 40.1365 32.479C40.2288 31.7562 40.0511 31.0248 39.6375 30.425C37.7708 27.6917 35.5958 24.2167 32.4417 21.9125C32.0337 21.6194 31.557 21.4366 31.0577 21.3819C30.5584 21.3271 30.0534 21.4023 29.5917 21.6C25.7583 23.2417 22.4417 27.45 22.6 31.7792C22.7042 34.6208 23.8167 42.6667 32.2417 51.0958Z" fill="#FF8B10"/>
</svg>
