<svg width="100" height="100" viewBox="0 0 100 100" fill="none" xmlns="http://www.w3.org/2000/svg">
<path d="M54.2833 8.33325C58.9708 8.34575 61.35 8.37075 63.4041 8.42909L64.2125 8.45825C65.1458 8.49159 66.0666 8.53325 67.1791 8.58325C71.6125 8.79159 74.6375 9.49159 77.2916 10.5208C80.0416 11.5791 82.3583 13.0124 84.675 15.3249C86.7945 17.4071 88.4341 19.9269 89.4791 22.7083C90.5083 25.3624 91.2083 28.3874 91.4166 32.8249C91.4666 33.9333 91.5083 34.8541 91.5416 35.7916L91.5666 36.5999C91.6291 38.6499 91.6541 41.0291 91.6625 45.7166L91.6666 48.8249V54.2832C91.6768 57.3224 91.6448 60.3616 91.5708 63.3999L91.5458 64.2082C91.5125 65.1457 91.4708 66.0666 91.4208 67.1749C91.2125 71.6124 90.5041 74.6332 89.4791 77.2916C88.4341 80.0729 86.7945 82.5927 84.675 84.6749C82.5928 86.7945 80.073 88.434 77.2916 89.4791C74.6375 90.5082 71.6125 91.2083 67.1791 91.4166L64.2125 91.5416L63.4041 91.5666C61.35 91.6249 58.9708 91.6541 54.2833 91.6624L51.175 91.6666H45.7208C42.6802 91.6773 39.6397 91.6454 36.6 91.5707L35.7916 91.5458C34.8025 91.5083 33.8136 91.4652 32.825 91.4166C28.3916 91.2083 25.3666 90.5082 22.7083 89.4791C19.9284 88.4335 17.4101 86.794 15.3291 84.6749C13.2081 82.5931 11.5671 80.0733 10.5208 77.2916C9.49164 74.6374 8.79164 71.6124 8.5833 67.1749L8.4583 64.2082L8.43747 63.3999C8.36066 60.3617 8.32594 57.3225 8.3333 54.2832V45.7166C8.32177 42.6774 8.35233 39.6382 8.42497 36.5999L8.45414 35.7916C8.48747 34.8541 8.52914 33.9333 8.57914 32.8249C8.78747 28.3874 9.48747 25.3666 10.5166 22.7083C11.5654 19.9257 13.2092 17.4059 15.3333 15.3249C17.4131 13.2064 19.9299 11.5669 22.7083 10.5208C25.3666 9.49159 28.3875 8.79159 32.825 8.58325C33.9333 8.53325 34.8583 8.49159 35.7916 8.45825L36.6 8.43325C39.6383 8.35922 42.6775 8.32727 45.7166 8.33742L54.2833 8.33325ZM50 29.1666C44.4746 29.1666 39.1756 31.3615 35.2686 35.2685C31.3616 39.1755 29.1666 44.4746 29.1666 49.9999C29.1666 55.5253 31.3616 60.8243 35.2686 64.7313C39.1756 68.6383 44.4746 70.8332 50 70.8332C55.5253 70.8332 60.8244 68.6383 64.7314 64.7313C68.6384 60.8243 70.8333 55.5253 70.8333 49.9999C70.8333 44.4746 68.6384 39.1755 64.7314 35.2685C60.8244 31.3615 55.5253 29.1666 50 29.1666ZM50 37.4999C51.6415 37.4996 53.267 37.8227 54.7837 38.4506C56.3003 39.0786 57.6785 39.9991 58.8394 41.1596C60.0003 42.3201 60.9213 43.698 61.5498 45.2145C62.1782 46.7309 62.5018 48.3563 62.5021 49.9978C62.5023 51.6394 62.1793 53.2649 61.5513 54.7815C60.9234 56.2982 60.0029 57.6764 58.8424 58.8373C57.6818 59.9982 56.304 60.9192 54.7875 61.5476C53.2711 62.176 51.6457 62.4996 50.0041 62.4999C46.6889 62.4999 43.5095 61.183 41.1653 58.8388C38.8211 56.4945 37.5041 53.3151 37.5041 49.9999C37.5041 46.6847 38.8211 43.5053 41.1653 41.1611C43.5095 38.8169 46.6889 37.4999 50.0041 37.4999M71.8791 22.9166C70.4978 22.9166 69.173 23.4653 68.1963 24.4421C67.2195 25.4188 66.6708 26.7436 66.6708 28.1249C66.6708 29.5063 67.2195 30.831 68.1963 31.8078C69.173 32.7845 70.4978 33.3333 71.8791 33.3333C73.2605 33.3333 74.5852 32.7845 75.562 31.8078C76.5387 30.831 77.0875 29.5063 77.0875 28.1249C77.0875 26.7436 76.5387 25.4188 75.562 24.4421C74.5852 23.4653 73.2605 22.9166 71.8791 22.9166Z" fill="#FF8B10"/>
</svg>
