<svg width="27" height="27" viewBox="0 0 27 27" fill="none" xmlns="http://www.w3.org/2000/svg">
<path fill-rule="evenodd" clip-rule="evenodd" d="M13.4163 2.23584C7.24147 2.23584 2.23608 7.24123 2.23608 13.4161C2.23608 15.5291 2.82305 17.508 3.8438 19.194L2.84652 22.5839C2.78926 22.7785 2.7855 22.9849 2.83562 23.1815C2.88574 23.3781 2.9879 23.5576 3.13135 23.701C3.27481 23.8445 3.45426 23.9466 3.65085 23.9968C3.84744 24.0469 4.0539 24.0431 4.24852 23.9859L7.63837 22.9886C9.38107 24.0428 11.3795 24.5989 13.4163 24.5963C19.5912 24.5963 24.5965 19.5909 24.5965 13.4161C24.5965 7.24123 19.5912 2.23584 13.4163 2.23584ZM10.8873 15.9462C13.1491 18.2068 15.308 18.5053 16.0705 18.5333C17.2299 18.5757 18.3591 17.6903 18.7985 16.6628C18.8535 16.5349 18.8734 16.3946 18.8561 16.2565C18.8388 16.1183 18.7849 15.9872 18.7001 15.8768C18.0874 15.0942 17.259 14.5319 16.4495 13.9728C16.2806 13.8557 16.0728 13.8087 15.8699 13.8416C15.667 13.8746 15.4848 13.9849 15.3617 14.1495L14.6909 15.1725C14.6554 15.2273 14.6005 15.2665 14.5371 15.2823C14.4738 15.2981 14.4069 15.2892 14.3499 15.2575C13.8948 14.997 13.2318 14.5542 12.7556 14.0779C12.2793 13.6017 11.8634 12.9689 11.6297 12.5429C11.6014 12.4886 11.5935 12.426 11.6072 12.3664C11.6209 12.3068 11.6555 12.254 11.7046 12.2175L12.7377 11.4506C12.8855 11.3227 12.981 11.1447 13.0057 10.9508C13.0305 10.7568 12.9828 10.5606 12.8718 10.3996C12.371 9.66622 11.7874 8.73379 10.941 8.11552C10.8316 8.03688 10.7036 7.98783 10.5697 7.97314C10.4357 7.95845 10.3002 7.97861 10.1763 8.03167C9.1477 8.47217 8.25775 9.60137 8.30024 10.763C8.32819 11.5255 8.6267 13.6844 10.8873 15.9462Z" fill="white"/>
</svg>
