<svg width="114" height="114" viewBox="0 0 114 114" fill="none" xmlns="http://www.w3.org/2000/svg">
<path d="M54.119 68.0417L51.7794 77.8164C51.5999 78.5715 51.648 79.3629 51.9176 80.0908C52.1872 80.8186 52.6662 81.4504 53.2942 81.9065C53.9223 82.3626 54.6713 82.6226 55.4468 82.6537C56.2224 82.6848 56.9898 82.4857 57.6524 82.0814L87.3657 64.1221L69.003 34.6596C68.7343 34.2189 68.3812 33.8357 67.9638 33.532C67.5465 33.2284 67.0733 33.0102 66.5713 32.89C66.0694 32.7699 65.5486 32.7502 65.0391 32.832C64.5295 32.9138 64.0411 33.0955 63.602 33.3668C62.7142 33.9115 62.0791 34.7865 61.8364 35.7994L59.5608 45.3067C49.1187 42.5327 38.0958 37.8831 32.65 22.7557L31.7358 26.5754C27.5 44.2722 37.3856 62.0253 54.119 68.0417Z" fill="white"/>
</svg>
